<?xml version="1.0" encoding="UTF-8"?>
<svg width="18px" height="25px" viewBox="0 0 18 25" version="1.1" xmlns="http://www.w3.org/2000/svg" xmlns:xlink="http://www.w3.org/1999/xlink">
    <title>lightspeed</title>
    <g id="Portfolio-website" stroke="none" stroke-width="1" fill="none" fill-rule="evenodd">
        <g id="Niklaskors.com" transform="translate(-105.000000, -1893.000000)" fill="#D02E2E" fill-rule="nonzero">
            <g id="lightspeed" transform="translate(105.000000, 1893.000000)">
                <path d="M9.4375,0 L10.6058849,2.00460829 C10.8395619,2.41935484 10.8395619,2.92626728 10.6058849,3.34101382 L3.642311,15.2534562 L6.93715636,20.875576 C7.4512457,21.7511521 8.40932131,22.3041475 9.4375,22.3041475 C10.4656787,22.3041475 11.4237543,21.7511521 11.9378436,20.875576 L15.232689,15.2534562 L14.3680842,13.7327189 L10.6292526,20.1152074 C10.3955756,20.5299539 9.92822165,20.7834101 9.4608677,20.7834101 C8.97014605,20.7834101 8.52615979,20.5299539 8.29248282,20.1152074 L5.41825601,15.2534562 L11.8911082,4.19354839 L13.0594931,6.19815668 C13.2931701,6.61290323 13.2931701,7.11981567 13.0594931,7.53456221 L8.54952749,15.2534562 L9.4375,16.7741935 L14.3447165,8.38709677 L17.5694588,13.8940092 C18.0601804,14.7465438 18.0601804,15.7834101 17.5694588,16.6359447 L14.2979811,22.235023 C13.8072595,23.0875576 12.2416237,25 9.4375,25 C6.63337629,25 5.09110825,23.0875576 4.5770189,22.235023 L1.30554124,16.6359447 C0.814819588,15.7834101 0.814819588,14.7465438 1.30554124,13.8940092 L9.4375,0" id="Path"></path>
            </g>
        </g>
    </g>
</svg>