<?xml version="1.0" encoding="UTF-8"?>
<svg width="28px" height="28px" viewBox="0 0 28 28" version="1.1" xmlns="http://www.w3.org/2000/svg" xmlns:xlink="http://www.w3.org/1999/xlink">
    <title>logo-relive-black-icon</title>
    <g id="Portfolio-website" stroke="none" stroke-width="1" fill="none" fill-rule="evenodd">
        <g id="Niklaskors.com" transform="translate(-100.000000, -1668.000000)" fill-rule="nonzero">
            <g id="Group-4" transform="translate(100.000000, 1668.000000)">
                <path d="M6.76328503,0 L21.126043,0 C24.8613022,0 27.889328,3.03736337 27.889328,6.78414098 L27.889328,21.157321 C27.889328,24.9040987 24.8613022,27.9414621 21.126043,27.9414621 L6.76328503,27.9414621 C3.02802584,27.9414621 0,24.9040987 0,21.157321 L0,6.78414098 C0,3.03736337 3.02802584,0 6.76328503,0 Z" id="Rectangle" fill="#FFDD00"></path>
                <path d="M16.2600826,16.2593878 C17.8349156,15.5334262 18.843962,13.9555416 18.843962,12.2187913 C18.843962,9.76230267 16.8562606,7.77092511 14.4043066,7.77092511 C11.9523527,7.77092511 9.9646513,9.76230267 9.9646513,12.2187913 C9.97315315,12.5643839 10.2552349,12.8401079 10.6002941,12.8401079 C10.9453534,12.8401079 11.2274351,12.5643839 11.2359369,12.2187913 C11.2359369,11.0845411 11.8399351,10.0364507 12.8204113,9.46932553 C13.8008875,8.90220041 15.008884,8.90220041 15.9893602,9.46932553 C16.9698363,10.0364507 17.5738346,11.0845411 17.5738345,12.2187913 C17.5764288,12.9355137 17.3342163,13.6315589 16.8874252,14.1913233 C16.5470042,14.6187384 16.1029436,14.9516341 15.5976088,15.1582508 L14.0688231,12.6341834 C13.9535838,12.4436923 13.7473975,12.3273428 13.5250619,12.3273428 C13.3027263,12.3273428 13.0965399,12.4436923 12.9813006,12.6341834 L8.9547262,19.300568 C8.82967852,19.4954635 8.8201136,19.7430115 8.92974865,19.9470084 C9.03938368,20.1510053 9.25092928,20.2792809 9.48217333,20.2820275 C9.71341734,20.2846869 9.92789273,20.1613912 10.0422488,19.9600125 L13.4329873,14.3460317 C13.4881934,14.2551405 13.5634745,14.2551405 13.6098014,14.3324947 L13.8962557,14.808223 L14.7695166,16.2535862 L17.0105774,19.9603992 C17.196841,20.250704 17.5799803,20.3396134 17.8746764,20.1609176 C18.1693724,19.9822219 18.2684378,19.6009164 18.0980999,19.3009547 L16.2600826,16.2593878 Z" id="Shape-Copy" fill="#242115"></path>
            </g>
        </g>
    </g>
</svg>