<?xml version="1.0" encoding="UTF-8"?>
<svg width="27px" height="25px" viewBox="0 0 27 25" version="1.1" xmlns="http://www.w3.org/2000/svg" xmlns:xlink="http://www.w3.org/1999/xlink">
    <title>logo_with_text.12f2a978 (1)</title>
    <defs>
        <linearGradient x1="84.1149904%" y1="15.4535326%" x2="30.9084237%" y2="102.547662%" id="linearGradient-1">
            <stop stop-color="#B1FC7C" offset="0%"></stop>
            <stop stop-color="#5AD172" offset="48.53659%"></stop>
            <stop stop-color="#19829C" offset="100%"></stop>
            <stop stop-color="#1FB597" offset="100%"></stop>
        </linearGradient>
    </defs>
    <g id="Portfolio-website" stroke="none" stroke-width="1" fill="none" fill-rule="evenodd">
        <g id="Niklaskors.com" transform="translate(-100.000000, -1593.000000)" fill="url(#linearGradient-1)" fill-rule="nonzero">
            <g id="logo_with_text.12f2a978-(1)" transform="translate(100.392857, 1593.000000)">
                <path d="M24.6720351,14.3610494 L20.2904596,11.8604751 C20.0030694,11.6964659 19.9054037,11.752222 19.9054037,12.0802231 L19.9054037,13.410249 C19.9054037,13.7771173 20.1034153,14.1161162 20.4248183,14.2995416 L23.6371908,16.1328371 C23.8179756,16.2360008 23.9302409,16.4282629 23.9302586,16.6346775 L23.9302586,19.6153927 L18.7851481,16.6790872 L18.7851305,11.591995 L18.7850952,11.591995 L18.7850952,4.53787263 C18.7850952,3.60282829 18.2762424,2.73167961 17.4571479,2.26427944 L14.1038927,0.350582806 C13.2847982,-0.116799938 12.2670573,-0.116921929 11.4479628,0.350582806 L8.09467236,2.26427944 C7.272933,2.73324822 6.76670739,3.59993504 6.76670739,4.53789007 L6.76670739,9.28328188 C6.76670739,9.61130033 6.86439078,9.66703908 7.15176326,9.50302983 L8.31701662,8.83801685 C8.6384196,8.65459143 8.83643121,8.31559254 8.83643121,7.94872429 L8.83643121,4.53787263 C8.83643121,4.33151034 8.94873183,4.13928314 9.12956951,4.03606713 L11.7410658,2.54569208 L11.7410834,8.16256373 L7.28416477,10.7060837 L7.28420004,10.706136 L1.32796496,14.1053623 C0.508764649,14.5728671 0,15.4440506 0,16.3789207 L0,20.2063314 C0,21.1412014 0.508817544,22.012507 1.32796496,22.479942 L4.68122018,24.393656 C5.50297719,24.8626423 6.51541072,24.8626423 7.33716773,24.3936735 L11.270634,22.1488385 C11.5580241,21.9848293 11.5580241,21.8733344 11.270634,21.7093426 L10.1053806,21.0443296 C9.78395999,20.8609042 9.38797204,20.8609042 9.0665514,21.0443296 L6.30228817,22.6218858 C6.12150338,22.7250669 5.8969198,22.7250495 5.71608212,22.6218509 L3.10456816,21.1314585 L7.8016222,18.4508749 L12.2585056,20.9944123 L18.6628676,24.649378 C19.4820502,25.1168827 20.4997206,25.1168653 21.3187622,24.649378 L24.6720174,22.7356813 C25.4910414,22.268194 26,21.3970105 26,20.4620707 L26,16.63466 C26,15.6967225 25.4937921,14.8300182 24.6720351,14.3610494 Z M20.2837945,22.8776252 C20.1031156,22.9807366 19.8785143,22.9807715 19.6977295,22.8775903 L13.2933676,19.2226246 L8.83648416,16.6790872 L8.83648416,13.9007778 C8.83648416,13.5727768 8.73880078,13.5170381 8.4514283,13.6810299 L7.28617494,14.3460429 C6.96477196,14.5294857 6.76676035,14.8684846 6.76676035,15.2353528 L6.76676035,16.6790872 L2.06972393,19.3596533 L2.06972393,16.3788335 C2.06972393,16.1726106 2.1820422,15.9803138 2.36282696,15.8771326 L8.76717131,12.2221843 L8.76715369,12.2221494 L12.7759455,9.93435141 L15.2100777,11.3234974 C15.4974502,11.4874892 15.5951336,11.4317505 15.5951336,11.1037494 L15.5951336,9.77372346 C15.5951336,9.40685521 15.3971219,9.06785632 15.0757013,8.8844309 L13.8108074,8.16254628 L13.8107897,2.54569205 L16.4223566,4.03613683 C16.6030356,4.13924827 16.7153715,4.33151031 16.7153715,4.5378726 L16.7153715,11.8477866 L16.7154067,11.8477866 L16.7154244,16.6791046 L14.2813098,18.0682506 C13.9939197,18.2322598 13.9939197,18.3437373 14.2813098,18.5077465 L15.4465631,19.1727595 C15.7679838,19.3561849 16.1639717,19.3561849 16.4853924,19.1727421 L17.7502863,18.4508749 L22.8954143,21.3871978 L20.2837945,22.8776252 Z" id="Symbol_-_Green_Gradient_00000016776661703147801390000012410324075379741350_"></path>
            </g>
        </g>
    </g>
</svg>